<?xml version="1.0" standalone="no"?>
<!DOCTYPE svg PUBLIC "-//W3C//DTD SVG 20010904//EN"
 "http://www.w3.org/TR/2001/REC-SVG-20010904/DTD/svg10.dtd">
<svg version="1.0" xmlns="http://www.w3.org/2000/svg"
 width="800.000000pt" height="800.000000pt" viewBox="0 0 800.000000 800.000000"
 preserveAspectRatio="xMidYMid meet">
<metadata>
Created by potrace 1.11, written by Peter Selinger 2001-2013
</metadata>
<g transform="translate(0.000000,800.000000) scale(0.100000,-0.100000)"
fill="#000000" stroke="none">
<path d="M0 4000 l0 -4000 4000 0 4000 0 0 4000 0 4000 -4000 0 -4000 0 0
-4000z m2723 1276 c18 -8 46 -27 62 -43 31 -28 46 -39 98 -71 16 -9 41 -27 55
-40 15 -12 47 -32 72 -43 25 -12 72 -34 105 -49 92 -43 206 -87 245 -95 19 -4
40 -11 46 -16 5 -5 72 -22 147 -39 133 -30 253 -47 407 -57 41 -3 80 -9 85
-13 19 -15 181 -22 495 -20 678 4 843 1 861 -17 18 -18 28 -82 49 -308 11
-121 25 -244 30 -274 6 -30 10 -70 10 -89 0 -33 -1 -33 -32 -26 -45 9 -137 40
-192 63 -43 19 -45 22 -39 52 5 28 1 36 -56 89 -215 201 -522 262 -795 158
-64 -25 -68 -131 -5 -164 27 -13 35 -13 97 5 107 31 192 44 259 37 75 -8 221
-49 271 -77 l37 -20 -40 5 c-22 3 -106 9 -186 12 -117 5 -166 3 -245 -11 -120
-21 -260 -83 -327 -144 -51 -47 -62 -49 -120 -20 -134 69 -290 79 -459 29
l-70 -21 -66 68 c-138 142 -345 213 -627 213 -157 1 -160 7 -18 41 161 38 281
27 453 -42 62 -25 80 -29 102 -20 61 23 74 123 21 158 -27 18 -91 43 -175 69
-179 55 -444 12 -608 -100 -77 -53 -95 -74 -95 -108 0 -30 -3 -32 -63 -49 -72
-20 -210 -44 -217 -37 -7 7 91 385 153 593 63 208 111 310 189 395 40 45 41
45 86 26z m374 -972 c-3 -3 -12 -4 -19 -1 -8 3 -5 6 6 6 11 1 17 -2 13 -5z
m50 -10 c-3 -3 -12 -4 -19 -1 -8 3 -5 6 6 6 11 1 17 -2 13 -5z m40 -10 c-3 -3
-12 -4 -19 -1 -8 3 -5 6 6 6 11 1 17 -2 13 -5z m-47 -38 c190 -50 299 -116
358 -215 25 -43 27 -53 27 -171 0 -79 -5 -142 -14 -170 -50 -160 -57 -179
-117 -270 -105 -161 -270 -249 -471 -250 -234 -1 -426 114 -515 309 -62 136
-74 354 -27 507 57 185 132 252 314 278 65 9 391 -4 445 -18z m1548 -43 c-10
-2 -28 -2 -40 0 -13 2 -5 4 17 4 22 1 32 -1 23 -4z m-91 -9 c-3 -3 -12 -4 -19
-1 -8 3 -5 6 6 6 11 1 17 -2 13 -5z m-44 -11 c-7 -2 -19 -2 -25 0 -7 3 -2 5
12 5 14 0 19 -2 13 -5z m410 -38 c120 -19 251 -61 291 -95 91 -79 133 -221
123 -414 -6 -116 -24 -190 -69 -284 -55 -116 -196 -239 -313 -274 -65 -19
-171 -27 -246 -17 -285 35 -456 203 -520 509 -20 92 -16 284 6 351 62 185 366
278 728 224z m-1070 -52 c-7 -2 -21 -2 -30 0 -10 3 -4 5 12 5 17 0 24 -2 18
-5z m-1626 -240 c-2 -189 0 -226 17 -278 21 -67 73 -186 84 -195 5 -3 19 -21
32 -40 57 -83 176 -169 290 -209 81 -28 277 -40 372 -22 236 45 418 212 509
470 44 127 54 183 52 297 l-3 110 34 16 c123 59 376 41 465 -32 19 -17 22 -26
16 -53 -14 -67 -17 -243 -5 -312 34 -190 111 -350 219 -451 143 -135 416 -205
617 -158 120 27 209 78 304 174 82 81 116 135 168 260 17 39 15 -141 -3 -295
-36 -313 -115 -513 -293 -737 -141 -177 -371 -376 -609 -527 -182 -115 -264
-150 -458 -193 -129 -29 -384 -31 -512 -5 -269 56 -465 164 -716 395 -289 266
-474 521 -556 767 -58 175 -74 280 -81 525 -3 124 -7 210 -8 192 -1 -18 -9
-49 -18 -70 -17 -40 -14 -188 7 -412 10 -102 10 -105 -12 -123 -20 -16 -24
-16 -31 -3 -5 9 -10 35 -11 59 -4 58 -12 70 -39 54 -16 -9 -22 -9 -25 1 -3 6
-12 12 -21 12 -15 -1 -14 -3 2 -15 11 -8 29 -15 40 -15 13 -1 5 -7 -19 -15
-55 -20 -64 -19 -57 7 3 14 1 19 -6 14 -12 -7 -18 12 -26 84 -3 25 -10 72 -17
105 -6 33 -13 85 -15 115 -1 30 -8 113 -14 183 -17 191 11 331 73 372 40 26
110 11 158 -33 l39 -36 0 -100 c0 -151 16 -105 30 84 12 182 19 250 25 250 2
0 3 -98 2 -217z m3471 -177 c60 -69 64 -227 12 -433 -11 -42 -20 -85 -20 -96
0 -17 -49 -197 -70 -257 -4 -14 -11 -36 -14 -50 -11 -48 -20 -54 -54 -36 -17
9 -41 16 -52 16 -19 0 -20 2 -7 14 8 9 24 12 36 9 12 -3 21 -1 21 6 0 6 -16
11 -36 11 -21 0 -33 -4 -29 -10 3 -5 1 -10 -4 -10 -16 0 -13 -31 4 -50 24 -26
3 -74 -28 -65 -12 4 -31 15 -41 26 -19 17 -19 20 -3 96 33 149 57 281 57 310
0 27 20 108 35 146 6 14 4 16 -10 10 -17 -6 -18 3 -12 150 5 138 8 161 28 197
14 25 25 36 30 29 5 -9 17 -8 45 4 58 24 79 21 112 -17z m-3197 -403 c13 -16
12 -17 -3 -4 -17 13 -22 21 -14 21 2 0 10 -8 17 -17z m2629 -127 c0 -2 -8 -10
-17 -17 -16 -13 -17 -12 -4 4 13 16 21 21 21 13z m-45 -36 c-3 -5 -12 -10 -18
-10 -7 0 -6 4 3 10 19 12 23 12 15 0z m-40 -20 c-3 -5 -12 -10 -18 -10 -7 0
-6 4 3 10 19 12 23 12 15 0z m-2985 -92 c0 -11 -28 -10 -35 1 -3 6 4 9 15 8
11 -1 20 -5 20 -9z m-2 -40 c5 -24 -10 -23 -39 2 l-24 20 30 -2 c19 -2 31 -9
33 -20z m3476 -172 c-3 -8 -12 -12 -20 -9 -21 8 -17 23 6 23 13 0 18 -5 14
-14z m-149 -66 c-3 -5 -11 -10 -16 -10 -6 0 -7 5 -4 10 3 6 11 10 16 10 6 0 7
-4 4 -10z"/>
<path d="M2833 3995 c-29 -8 -75 -26 -103 -40 -87 -44 -173 -180 -140 -220 11
-13 16 -9 37 32 31 62 93 119 167 154 33 16 61 27 63 25 2 -2 -9 -23 -25 -47
-45 -67 -58 -140 -38 -217 17 -68 55 -133 92 -157 13 -8 45 -18 71 -21 27 -3
60 -7 76 -9 23 -4 27 -1 27 20 0 19 7 26 28 31 15 3 51 19 79 35 59 33 81 36
89 14 8 -21 -20 -62 -59 -85 -19 -12 -25 -20 -16 -20 30 0 104 67 134 121 27
48 30 63 30 142 l0 89 40 -45 c22 -24 53 -68 68 -98 l29 -54 -7 45 c-16 117
-135 228 -308 287 -92 32 -255 41 -334 18z m177 -95 c24 -24 25 -48 4 -78 -30
-43 -114 -15 -114 38 0 28 35 60 65 60 14 0 34 -9 45 -20z"/>
<path d="M2494 3841 c-38 -23 -74 -68 -74 -91 0 -9 9 -25 19 -34 22 -20 21
-21 75 78 38 71 35 80 -20 47z"/>
<path d="M4630 3901 c-162 -23 -314 -112 -365 -215 -40 -79 -31 -98 14 -29 21
33 53 70 70 83 l32 22 -8 -38 c-20 -100 4 -195 66 -267 35 -40 80 -57 149 -57
38 0 42 2 42 25 0 18 5 25 20 25 10 0 53 18 94 39 65 35 76 38 93 26 17 -13
17 -15 2 -42 -10 -15 -32 -38 -49 -50 -19 -13 -26 -23 -18 -23 9 0 39 20 66
45 68 61 96 132 89 227 -3 46 -12 80 -30 112 -29 52 -24 55 35 25 59 -30 135
-111 164 -174 36 -79 61 -69 43 16 -12 57 -71 135 -133 176 -90 61 -247 92
-376 74z m-52 -87 c46 -32 17 -114 -40 -114 -26 0 -58 36 -58 64 0 24 41 66
64 66 6 0 22 -7 34 -16z"/>
<path d="M5299 3593 c12 -18 24 -33 27 -33 9 0 -15 37 -33 51 -12 10 -11 5 6
-18z"/>
<path d="M1990 3764 c0 -9 27 -45 60 -81 33 -35 60 -70 60 -77 0 -8 7 -20 16
-27 15 -12 16 -11 10 11 -15 49 -56 126 -85 158 -32 34 -61 42 -61 16z"/>
<path d="M2093 3295 c4 -9 7 -23 7 -31 0 -10 6 -8 21 7 23 23 23 24 -10 34
-20 6 -23 4 -18 -10z"/>
<path d="M3541 3015 c-1 -62 27 -125 67 -154 122 -86 359 -83 449 6 37 38 65
119 56 165 -6 30 -6 29 -37 -33 -25 -50 -41 -69 -79 -93 -42 -26 -61 -30 -136
-34 -156 -8 -248 37 -296 142 l-23 51 -1 -50z"/>
<path d="M3200 2556 c0 -7 123 -43 230 -66 49 -11 131 -22 182 -25 51 -3 129
-9 173 -14 120 -12 387 -5 489 13 49 9 94 16 100 16 6 0 5 4 -3 9 -8 5 -73 7
-145 4 -157 -7 -710 22 -851 44 -143 22 -175 26 -175 19z"/>
<path d="M5715 3561 c-34 -14 -102 -96 -135 -163 l-31 -63 63 66 c35 37 80 79
101 94 25 18 37 35 37 51 0 26 -4 27 -35 15z"/>
<path d="M5530 3091 c0 -12 29 -23 41 -15 18 10 9 24 -16 24 -14 0 -25 -4 -25
-9z"/>
<path d="M5600 2820 c19 -13 30 -13 30 0 0 6 -10 10 -22 10 -19 0 -20 -2 -8
-10z"/>
</g>
</svg>
