<?xml version="1.0" standalone="no"?>
<!DOCTYPE svg PUBLIC "-//W3C//DTD SVG 20010904//EN"
 "http://www.w3.org/TR/2001/REC-SVG-20010904/DTD/svg10.dtd">
<svg version="1.0" xmlns="http://www.w3.org/2000/svg"
 width="450.000000pt" height="450.000000pt" viewBox="0 0 450.000000 450.000000"
 preserveAspectRatio="xMidYMid meet">
<metadata>
Created by potrace 1.11, written by Peter Selinger 2001-2013
</metadata>
<g transform="translate(0.000000,450.000000) scale(0.100000,-0.100000)"
fill="#000000" stroke="none">
<path d="M180 4491 c-69 -21 -121 -65 -156 -131 -18 -34 -19 -107 -22 -2090
-2 -1601 0 -2065 10 -2100 16 -58 96 -141 154 -158 60 -18 4108 -18 4168 0 58
17 138 100 154 158 10 35 12 499 10 2100 -3 1983 -4 2056 -22 2090 -26 49 -64
88 -111 113 l-40 22 -2060 2 c-1133 1 -2071 -2 -2085 -6z m2215 -926 c18 -9
168 -153 335 -321 l303 -304 -7 -46 c-14 -107 -112 -279 -245 -432 -45 -51
-71 -89 -67 -97 21 -55 232 54 473 242 l96 75 69 -69 c38 -37 76 -80 84 -95
19 -36 18 -102 -2 -141 -21 -41 -585 -609 -643 -648 -55 -36 -110 -39 -163 -6
-57 34 -836 830 -844 861 -16 65 1 112 73 208 126 168 169 252 259 501 29 84
66 172 82 197 51 82 123 110 197 75z m-772 -1041 c37 -19 345 -322 737 -725
231 -237 270 -282 280 -319 19 -72 -1 -121 -85 -207 -72 -73 -122 -103 -170
-103 -58 0 -102 33 -277 207 -98 98 -179 175 -182 173 -2 -3 -43 -84 -91 -180
-139 -279 -190 -346 -299 -396 -51 -23 -68 -26 -130 -22 -90 6 -159 40 -233
114 -91 90 -132 217 -104 319 17 63 64 129 128 179 32 25 148 92 258 147 110
56 202 104 204 106 3 2 -72 81 -166 176 -205 207 -227 243 -201 330 15 48 122
168 177 197 45 24 112 25 154 4z"/>
<path d="M1364 1380 c-30 -12 -64 -58 -64 -87 0 -61 60 -113 116 -99 92 23
100 154 12 185 -36 13 -36 13 -64 1z"/>
</g>
</svg>
